<svg width="27" height="23" viewBox="0 0 27 23" fill="none" xmlns="http://www.w3.org/2000/svg">
<path d="M1.5 10C0.671573 10 0 10.6716 0 11.5C0 12.3284 0.671573 13 1.5 13V10ZM26.5607 12.5607C27.1464 11.9749 27.1464 11.0251 26.5607 10.4393L17.0147 0.893398C16.4289 0.307611 15.4792 0.307611 14.8934 0.893398C14.3076 1.47919 14.3076 2.42893 14.8934 3.01472L23.3787 11.5L14.8934 19.9853C14.3076 20.5711 14.3076 21.5208 14.8934 22.1066C15.4792 22.6924 16.4289 22.6924 17.0147 22.1066L26.5607 12.5607ZM1.5 13H25.5V10H1.5V13Z" fill="#F6E3FF"/>
</svg>
