<svg width="48" height="49" viewBox="0 0 48 49" fill="none" xmlns="http://www.w3.org/2000/svg">
<path d="M33.1666 14.6045H33.1833M15.6666 6.91699H32.3333C36.9356 6.91699 40.6666 10.7412 40.6666 15.4587V32.542C40.6666 37.2594 36.9356 41.0837 32.3333 41.0837H15.6666C11.0642 41.0837 7.33325 37.2594 7.33325 32.542V15.4587C7.33325 10.7412 11.0642 6.91699 15.6666 6.91699ZM30.6666 22.9241C30.8723 24.3458 30.6353 25.7979 29.9895 27.0736C29.3437 28.3494 28.3218 29.384 27.0693 30.0302C25.8168 30.6764 24.3973 30.9013 23.0129 30.673C21.6285 30.4446 20.3495 29.7746 19.358 28.7583C18.3664 27.742 17.7128 26.4311 17.49 25.012C17.2673 23.593 17.4867 22.1381 18.1171 20.8542C18.7476 19.5704 19.7569 18.523 21.0016 17.861C22.2462 17.199 23.6628 16.9562 25.0499 17.167C26.4648 17.382 27.7747 18.0578 28.7861 19.0945C29.7975 20.1312 30.4568 21.4738 30.6666 22.9241Z" stroke="white" stroke-width="3" stroke-linecap="round" stroke-linejoin="round"/>
</svg>
