<svg width="42" height="49" viewBox="0 0 42 49" fill="none" xmlns="http://www.w3.org/2000/svg">
<path d="M33.2218 14.4755C32.9821 14.3534 32.7487 14.2196 32.5226 14.0745C31.865 13.6461 31.262 13.1413 30.7267 12.571C29.3874 11.061 28.8872 9.52907 28.703 8.45652H28.7104C28.5565 7.56625 28.6201 6.99023 28.6297 6.99023H22.5296V30.2334C22.5296 30.5455 22.5296 30.8539 22.5163 31.1587C22.5163 31.1966 22.5126 31.2316 22.5104 31.2725C22.5104 31.2892 22.5104 31.3067 22.5067 31.3242C22.5067 31.3286 22.5067 31.333 22.5067 31.3374C22.4424 32.1713 22.1711 32.9769 21.7167 33.6833C21.2622 34.3897 20.6386 34.9753 19.9006 35.3884C19.1315 35.8196 18.2616 36.0458 17.3767 36.0446C14.5345 36.0446 12.2311 33.761 12.2311 30.9407C12.2311 28.1204 14.5345 25.8368 17.3767 25.8368C17.9147 25.8363 18.4494 25.9197 18.9609 26.084L18.9683 19.9636C17.4154 19.766 15.8378 19.8876 14.335 20.3208C12.8322 20.754 11.4369 21.4894 10.2369 22.4806C9.18552 23.3808 8.3016 24.4549 7.62493 25.6545C7.36743 26.092 6.39589 27.8499 6.27823 30.703C6.20424 32.3224 6.69778 34.0001 6.93308 34.6935V34.7081C7.08107 35.1164 7.65453 36.5098 8.58908 37.6844C9.34267 38.6267 10.233 39.4544 11.2314 40.1409V40.1263L11.2462 40.1409C14.1993 42.1183 17.4736 41.9885 17.4736 41.9885C18.0404 41.9659 19.9391 41.9885 22.0953 40.9816C24.4868 39.8653 25.8483 38.2021 25.8483 38.2021C26.7181 37.2084 27.4097 36.0759 27.8935 34.8532C28.4455 33.4234 28.6297 31.7085 28.6297 31.0231V18.692C28.7037 18.7358 29.6893 19.3782 29.6893 19.3782C29.6893 19.3782 31.1093 20.275 33.3247 20.859C34.9141 21.2746 37.0555 21.3621 37.0555 21.3621V15.3949C36.3052 15.4751 34.7816 15.2418 33.2218 14.4755Z" fill="white"/>
</svg>
