<svg width="38" height="38" viewBox="0 0 38 38" fill="none" xmlns="http://www.w3.org/2000/svg">
<path d="M13.2143 2.38092C13.3431 0.99442 15.1272 0.51636 15.932 1.65272L22.6222 11.0995C23.0439 11.6949 23.7047 12.0764 24.4312 12.1439L35.9574 13.2144C37.3439 13.3432 37.822 15.1273 36.6856 15.9321L27.2389 22.6223C26.6434 23.044 26.2619 23.7048 26.1945 24.4313L25.1239 35.9575C24.9952 37.344 23.211 37.8221 22.4063 36.6857L15.7161 27.239C15.2944 26.6435 14.6336 26.262 13.9071 26.1945L2.38083 25.124C0.994335 24.9953 0.516274 23.2111 1.65263 22.4063L11.0994 15.7161C11.6948 15.2945 12.0763 14.6337 12.1438 13.9072L13.2143 2.38092Z" fill="#A144FF" stroke="url(#paint0_linear_39_149)"/>
<defs>
<linearGradient id="paint0_linear_39_149" x1="13.2163" y1="-3.04708" x2="25.122" y2="41.3855" gradientUnits="userSpaceOnUse">
<stop stop-color="#7F00FF"/>
<stop offset="1" stop-color="#AD00FF"/>
</linearGradient>
</defs>
</svg>
